PathFileType	4	(X/Y/Z)	Walk7.trc
DataRate	CameraRate	NumFrames	NumMarkers	Units	OrigDataRate	OrigDataStartFrame	OrigNumFrames
200.000000	200.000000	9	59	mm	200.000000	369	565
Frame#	Times		CLAV		STRN		RBack		RASI		RACR1		RUA1		RElbow		RFA1		RWRU		LACR1		LUA1		LFA1		LCAR		RTH1		RTH3		RTH2		RLFC		LTH1		LTH3		LLFC		LTB1		LTB3		LTB4		LMT1		LASI		LTH4		RCAR		LTH2		C7		LTB2		LToe		T10		LMMAL		RFHD		RTH4		LFHD		RPSI		LMT5		LLMAL		RWRR		LElbowM		LPSI		RBHD		RTB1		LElbow		LBHD		RTB2		RTB4		RTB3		RMT1		RToe		LWRU		LWRR		RMMAL		RLMAL		RMT5		RCAL		RElbowM		LCAL
			X1	Y1	Z1	X2	Y2	Z2	X3	Y3	Z3	X4	Y4	Z4	X5	Y5	Z5	X6	Y6	Z6	X7	Y7	Z7	X8	Y8	Z8	X9	Y9	Z9	X10	Y10	Z10	X11	Y11	Z11	X12	Y12	Z12	X13	Y13	Z13	X14	Y14	Z14	X15	Y15	Z15	X16	Y16	Z16	X17	Y17	Z17	X18	Y18	Z18	X19	Y19	Z19	X20	Y20	Z20	X21	Y21	Z21	X22	Y22	Z22	X23	Y23	Z23	X24	Y24	Z24	X25	Y25	Z25	X26	Y26	Z26	X27	Y27	Z27	X28	Y28	Z28	X29	Y29	Z29	X30	Y30	Z30	X31	Y31	Z31	X32	Y32	Z32	X33	Y33	Z33	X34	Y34	Z34	X35	Y35	Z35	X36	Y36	Z36	X37	Y37	Z37	X38	Y38	Z38	X39	Y39	Z39	X40	Y40	Z40	X41	Y41	Z41	X42	Y42	Z42	X43	Y43	Z43	X44	Y44	Z44	X45	Y45	Z45	X46	Y46	Z46	X47	Y47	Z47	X48	Y48	Z48	X49	Y49	Z49	X50	Y50	Z50	X51	Y51	Z51	X52	Y52	Z52	X53	Y53	Z53	X54	Y54	Z54	X55	Y55	Z55	X56	Y56	Z56	X57	Y57	Z57	X58	Y58	Z58	X59	Y59	Z59

369	1.845	14.858	1321.9	-7.8725	92.386	1096.3	-17.763	-150.23	1291.1	97.714	56.016	927.73	122.74	-29.267	1324.5	168.78	-79.742	1116.6	224.61	-118.76	1015.6	243.69	-84.952	868.47	261.85	-134.65	767.41	281.04	-53.653	1343.5	-172.62	-39.118	1141.8	-235.07	84.826	940.23	-261.67	184.22	819.8	-261.54	1.114	744.19	182.89	62.325	567.24	149.66	88.114	684.72	129.35	91.72	469.99	138.63	-101.67	709.09	-159.5	-113.11	525.71	-127.29	-143.19	421.39	-113.29	-174.21	320.73	-37.198	-302.83	183.86	-41.902	-238.29	249.72	-43.76	-242	27.223	-75.878	14.721	914.64	-146.03	-108.93	613.2	-143.75	-98.293	717.84	280.89	-36.486	611.52	-116.95	-111.49	1398.6	5.7748	-252.84	266	-112.24	-284.87	37.067	-44.33	-145.72	1116.3	1.1459	-381.87	120.42	-10.636	48.999	1573.6	35.919	32.289	655.58	166.69	38.06	1570.3	-36.562	-165.58	962.49	80.57	-328.82	26.418	-118.69	-401.29	117	-92.109	-82.588	759.08	229.28	-45.07	997.72	-195.65	-182.3	954.74	-32.41	-115.74	1521.8	83.115	142.49	354.72	64.458	-24.275	1023	-259.66	-129.94	1527	-42.926	139.29	264.58	134.51	150.76	262.12	64.954	160.42	170.4	64.572	295.74	48.647	72.442	332.64	46.865	103.24	120.49	823.99	-267.45	162.21	856.65	-219.21	155.2	78.489	36.128	136.29	58.018	113.83	253.03	23.474	146.46	97.001	21.918	64.441	-130.18	995.2	159.94	-459.29	113.45	-37.928
370	1.85	21.111	1322	-6.7991	98.793	1096.4	-16.836	-143.79	1291.1	98.857	62.453	927.92	123.23	-22.86	1324.5	169.83	-72.942	1116.4	225.4	-111.86	1015.3	244.34	-77.881	868.24	262.28	-127.4	767.09	281.31	-47.319	1343.6	-171.52	-33.358	1141.9	-233.96	89.883	940.13	-260.96	189.23	819.72	-261.09	8.1008	744.93	183.2	69.501	568.23	149.32	94.974	685.8	129.13	98.293	470.42	138.58	-94.199	708.67	-158.74	-104.45	525.14	-127.08	-134.28	421.19	-113.3	-166.7	320.86	-37.677	-297.66	186.31	-43.069	-232.02	251.08	-44.589	-242.13	27.118	-75.701	20.912	914.49	-144.73	-100.84	612.69	-143.29	-90.902	717.61	281.18	-28.537	611.51	-116.07	-105.26	1398.7	6.8946	-246.3	267.93	-113.01	-284.38	37.141	-44.468	-139.72	1116.5	2.0052	-377.85	124.4	-12.049	54.853	1574	36.879	39.286	656.44	166.49	43.89	1570.6	-35.593	-159.49	962.85	81.259	-327.96	27.569	-118.76	-397.25	121.37	-93.461	-75.275	758.89	229.57	-39.763	997.78	-194.55	-176.32	954.55	-31.802	-109.7	1521.8	84.186	147.37	354.5	64.118	-19.196	1023	-258.7	-124	1526.8	-41.844	143.59	264.37	134.25	154.38	261.79	64.541	162.79	169.95	64.098	296.67	46.355	71.546	334.02	43.925	102.27	125.46	823.83	-266.62	167.45	856.67	-218.74	156.06	77.976	35.716	137.32	58.02	113.53	253.49	22.665	146.87	97.119	22.38	64.531	-123.25	995.07	160.57	-455.08	119.82	-39.514
371	1.855	27.337	1322.2	-5.7449	105.17	1096.6	-15.907	-137.38	1291.1	100	68.859	928.16	123.72	-16.454	1324.5	170.86	-66.097	1116.3	226.19	-104.93	1015.1	244.99	-70.724	868.07	262.69	-120.04	766.81	281.57	-41.005	1343.7	-170.42	-27.642	1142	-232.85	94.845	940.04	-260.23	194.09	819.59	-260.61	14.938	745.63	183.55	76.583	569.21	149	101.7	686.86	128.96	104.78	470.85	138.5	-86.581	708.28	-157.98	-95.498	524.61	-126.9	-125.03	421.03	-113.33	-158.82	321.05	-38.187	-292.11	188.87	-44.263	-225.38	252.51	-45.439	-242.26	27.001	-75.532	27.144	914.38	-143.36	-92.526	612.2	-142.85	-83.399	717.44	281.44	-20.385	611.57	-115.18	-99.057	1398.7	7.9968	-239.39	269.96	-113.8	-283.8	37.288	-44.623	-133.76	1116.6	2.8495	-373.44	128.52	-13.465	60.724	1574.4	37.834	46.159	657.26	166.33	49.74	1570.9	-34.628	-153.45	963.22	81.917	-326.95	28.914	-118.84	-392.83	125.9	-94.814	-67.851	758.78	229.85	-34.527	997.89	-193.44	-170.36	954.38	-31.226	-103.66	1521.7	85.243	152.12	354.28	63.74	-14.174	1023	-257.73	-118.04	1526.7	-40.775	147.79	264.18	133.96	157.88	261.47	64.095	165.02	169.54	63.598	297.49	44.379	70.695	335.29	41.337	101.39	130.29	823.65	-265.78	172.55	856.64	-218.24	156.8	77.514	35.292	138.26	58.066	113.22	253.86	22.042	147.25	97.21	22.807	64.61	-116.27	995.01	161.2	-450.42	126.4	-41.097
372	1.86	33.53	1322.4	-4.7134	111.51	1096.9	-14.977	-130.98	1291.2	101.14	75.232	928.46	124.23	-10.054	1324.6	171.87	-59.21	1116.3	226.96	-97.95	1015	245.64	-63.482	867.96	263.09	-112.58	766.59	281.83	-34.717	1343.9	-169.35	-21.971	1142.1	-231.75	99.716	939.94	-259.49	198.79	819.4	-260.09	21.611	746.27	183.93	83.55	570.14	148.72	108.29	687.88	128.88	111.16	471.24	138.42	-78.834	707.92	-157.22	-86.278	524.1	-126.74	-115.46	420.9	-113.39	-150.59	321.28	-38.725	-286.17	191.53	-45.472	-218.38	254.02	-46.303	-242.38	26.874	-75.377	33.415	914.3	-141.96	-84.013	611.75	-142.43	-75.785	717.32	281.68	-12.046	611.71	-114.29	-92.876	1398.8	9.0792	-232.14	272.1	-114.59	-283.1	37.524	-44.795	-127.83	1116.9	3.6806	-368.63	132.76	-14.87	66.612	1574.8	38.781	52.896	658.03	166.22	55.606	1571.2	-33.671	-147.44	963.6	82.544	-325.77	30.464	-118.92	-388.02	130.58	-96.153	-60.319	758.73	230.1	-29.36	998.04	-192.32	-164.42	954.23	-30.677	-97.614	1521.7	86.285	156.74	354.06	63.337	-9.2077	1023.1	-256.75	-112.07	1526.6	-39.721	151.86	263.99	133.65	161.27	261.17	63.63	167.12	169.15	63.083	298.21	42.714	69.9	336.45	39.094	100.6	134.97	823.46	-264.95	177.51	856.56	-217.72	157.44	77.1	34.867	139.1	58.146	112.9	254.15	21.58	147.6	97.283	23.194	64.677	-109.24	995	161.82	-445.29	133.17	-42.665
373	1.865	39.686	1322.7	-3.7078	117.8	1097.2	-14.046	-124.62	1291.3	102.28	81.568	928.82	124.75	-3.6672	1324.8	172.85	-52.287	1116.2	227.72	-90.939	1014.9	246.29	-56.156	867.91	263.48	-105.01	766.41	282.07	-28.467	1344.1	-168.28	-16.349	1142.3	-230.66	104.5	939.84	-258.73	203.36	819.14	-259.54	28.111	746.83	184.36	90.378	571.01	148.48	114.72	688.84	128.87	117.41	471.59	138.32	-70.974	707.59	-156.48	-76.819	523.64	-126.63	-105.61	420.81	-113.49	-142.04	321.57	-39.288	-279.86	194.27	-46.683	-211.03	255.6	-47.175	-242.46	26.739	-75.238	39.724	914.27	-140.53	-75.323	611.34	-142.03	-68.058	717.24	281.89	-3.542	611.92	-113.42	-86.731	1399	10.14	-224.55	274.33	-115.37	-282.25	37.865	-44.986	-121.93	1117.1	4.5	-363.43	137.09	-16.246	72.517	1575.2	39.716	59.481	658.73	166.16	61.489	1571.6	-32.727	-141.48	963.97	83.143	-324.39	32.227	-119.01	-382.84	135.37	-97.462	-52.682	758.73	230.34	-24.257	998.24	-191.19	-158.52	954.1	-30.153	-91.566	1521.8	87.309	161.24	353.83	62.921	-4.2953	1023.2	-255.78	-106.1	1526.6	-38.685	155.79	263.79	133.33	164.54	260.88	63.158	169.11	168.78	62.569	298.83	41.342	69.168	337.51	37.182	99.903	139.52	823.25	-264.11	182.32	856.43	-217.17	157.98	76.73	34.449	139.87	58.251	112.59	254.38	21.255	147.91	97.345	23.539	64.731	-102.18	995.05	162.44	-439.7	140.08	-44.2
374	1.87	45.8	1322.9	-2.7314	124.05	1097.5	-13.118	-118.28	1291.5	103.41	87.864	929.22	125.29	2.7018	1325	173.8	-45.334	1116.3	228.46	-83.894	1014.9	246.93	-48.749	867.9	263.86	-97.33	766.26	282.3	-22.262	1344.4	-167.24	-10.776	1142.5	-229.59	109.2	939.73	-257.95	207.79	818.82	-258.96	34.432	747.31	184.84	97.038	571.79	148.3	121	689.73	128.96	123.51	471.89	138.22	-63.019	707.32	-155.75	-67.153	523.22	-126.54	-95.502	420.77	-113.62	-133.18	321.91	-39.868	-273.19	197.07	-47.877	-203.35	257.23	-48.045	-242.46	26.602	-75.121	46.066	914.28	-139.09	-66.481	610.98	-141.67	-60.22	717.19	282.07	5.1034	612.22	-112.56	-80.624	1399.2	11.177	-216.64	276.63	-116.14	-281.22	38.327	-45.195	-116.07	1117.4	5.3088	-357.83	141.51	-17.577	78.438	1575.5	40.635	65.9	659.36	166.17	67.387	1572	-31.8	-135.56	964.33	83.717	-322.77	34.208	-119.11	-377.28	140.24	-98.726	-44.945	758.8	230.55	-19.215	998.48	-190.06	-152.63	953.98	-29.649	-85.52	1521.9	88.312	165.59	353.58	62.509	0.56501	1023.3	-254.8	-100.13	1526.6	-37.669	159.57	263.59	133.01	167.68	260.59	62.693	170.99	168.43	62.065	299.37	40.238	68.506	338.47	35.577	99.313	143.94	823.02	-263.28	187	856.25	-216.59	158.45	76.4	34.046	140.55	58.371	112.29	254.55	21.043	148.18	97.402	23.842	64.773	-95.09	995.15	163.06	-433.66	147.09	-45.687
375	1.875	51.868	1323.2	-1.7867	130.23	1097.9	-12.194	-111.98	1291.7	104.53	94.113	929.67	125.85	9.0469	1325.3	174.73	-38.358	1116.4	229.2	-76.818	1014.9	247.58	-41.262	867.94	264.22	-89.545	766.15	282.53	-16.111	1344.6	-166.21	-5.2572	1142.8	-228.53	113.81	939.62	-257.17	212.08	818.44	-258.35	40.573	747.71	185.36	103.5	572.48	148.17	127.1	690.51	129.15	129.44	472.13	138.12	-54.989	707.09	-155.05	-57.316	522.87	-126.49	-85.176	420.78	-113.78	-124.05	322.31	-40.459	-266.18	199.92	-49.039	-195.35	258.92	-48.902	-242.35	26.467	-75.028	52.437	914.34	-137.65	-57.517	610.67	-141.33	-52.268	717.19	282.23	13.864	612.6	-111.74	-74.562	1399.4	12.191	-208.44	279	-116.9	-279.97	38.924	-45.42	-110.23	1117.7	6.1075	-351.86	145.97	-18.843	84.373	1575.9	41.535	72.14	659.89	166.26	73.297	1572.3	-30.892	-129.68	964.68	84.268	-320.89	36.407	-119.19	-371.34	145.17	-99.926	-37.111	758.91	230.75	-14.23	998.75	-188.93	-146.77	953.88	-29.161	-79.479	1522.1	89.293	169.81	353.32	62.114	5.3742	1023.5	-253.82	-94.158	1526.7	-36.676	163.17	263.37	132.69	170.71	260.29	62.248	172.77	168.1	61.583	299.83	39.373	67.916	339.35	34.249	98.825	148.23	822.77	-262.46	191.54	856.01	-216	158.85	76.105	33.664	141.14	58.498	112.01	254.68	20.922	148.41	97.454	24.102	64.802	-87.973	995.28	163.68	-427.19	154.13	-47.112
376	1.88	57.887	1323.6	-0.87577	136.35	1098.3	-11.276	-105.73	1291.9	105.63	100.31	930.15	126.42	15.363	1325.6	175.62	-31.365	1116.5	229.93	-69.713	1014.9	248.23	-33.699	868.02	264.57	-81.655	766.08	282.76	-10.022	1344.9	-165.21	0.20581	1143	-227.49	118.35	939.5	-256.37	216.24	818	-257.72	46.535	748.01	185.93	109.74	573.05	148.12	133.04	691.17	129.45	135.19	472.3	138.05	-46.905	706.93	-154.37	-47.347	522.6	-126.48	-74.67	420.85	-113.98	-114.67	322.78	-41.05	-258.84	202.81	-50.149	-187.07	260.66	-49.736	-242.08	26.344	-74.962	58.832	914.43	-136.22	-48.459	610.44	-141.02	-44.205	717.22	282.36	22.714	613.07	-110.97	-68.547	1399.6	13.179	-199.96	281.41	-117.62	-278.45	39.664	-45.662	-104.42	1118	6.8961	-345.52	150.44	-20.03	90.322	1576.3	42.413	78.186	660.32	166.42	79.217	1572.7	-30.007	-123.83	965.02	84.801	-318.71	38.818	-119.27	-365.04	150.11	-101.05	-29.184	759.08	230.93	-9.2981	999.05	-187.79	-140.93	953.79	-28.685	-73.446	1522.3	90.251	173.88	353.03	61.748	10.133	1023.7	-252.84	-88.194	1526.9	-35.707	166.6	263.14	132.39	173.63	259.99	61.834	174.45	167.77	61.13	300.22	38.714	67.398	340.13	33.165	98.442	152.4	822.5	-261.65	195.96	855.71	-215.38	159.19	75.844	33.306	141.66	58.625	111.75	254.78	20.87	148.6	97.504	24.321	64.819	-80.839	995.45	164.3	-420.3	161.17	-48.457
377	1.885	63.855	1323.9	-5.5869e-05	142.41	1098.8	-10.37	-99.52	1292.1	106.72	106.44	930.65	127.02	21.644	1326	176.49	-24.364	1116.7	230.65	-62.581	1015	248.89	-26.064	868.14	264.91	-73.662	766.02	282.98	-3.9999	1345.3	-164.23	5.609	1143.3	-226.47	122.81	939.36	-255.57	220.28	817.49	-257.05	52.319	748.23	186.54	115.72	573.5	148.13	138.82	691.69	129.87	140.74	472.41	137.99	-38.792	706.84	-153.73	-37.289	522.4	-126.49	-64.021	420.99	-114.2	-105.08	323.31	-41.633	-251.18	205.71	-51.19	-178.53	262.43	-50.533	-241.6	26.242	-74.925	65.243	914.57	-134.82	-39.342	610.28	-140.75	-36.03	717.28	282.45	31.624	613.62	-110.25	-62.582	1399.9	14.141	-191.24	283.85	-118.3	-276.61	40.553	-45.918	-98.645	1118.3	7.6743	-338.84	154.91	-21.119	96.282	1576.7	43.265	84.028	660.64	166.66	85.145	1573.1	-29.148	-118.01	965.35	85.318	-316.18	41.433	-119.34	-358.39	155.04	-102.08	-21.169	759.29	231.08	-4.4179	999.38	-186.64	-135.1	953.73	-28.22	-67.422	1522.5	91.183	177.82	352.72	61.423	14.841	1023.9	-251.86	-82.24	1527.1	-34.763	169.83	262.89	132.11	176.43	259.67	61.461	176.04	167.45	60.715	300.55	38.23	66.952	340.83	32.293	98.16	156.45	822.2	-260.85	200.24	855.36	-214.74	159.49	75.611	32.977	142.11	58.747	111.5	254.84	20.872	148.74	97.552	24.5	64.825	-73.694	995.65	164.93	-413.02	168.13	-49.708
